<svg width="1173" height="5908" viewBox="0 0 1173 5908" fill="none" xmlns="http://www.w3.org/2000/svg">
<circle cx="3.5" cy="179.5" r="3.5" fill="#2D3B50"/>
<circle cx="109.5" cy="178.5" r="3.5" fill="#2D3B50"/>
<circle cx="215.5" cy="178.5" r="3.5" fill="#2D3B50"/>
<circle cx="321.5" cy="178.5" r="3.5" fill="#2D3B50"/>
<circle cx="427.5" cy="178.5" r="3.5" fill="#2D3B50"/>
<circle cx="533.5" cy="178.5" r="3.5" fill="#2D3B50"/>
<circle cx="639.5" cy="178.5" r="3.5" fill="#2D3B50"/>
<circle cx="745.5" cy="178.5" r="3.5" fill="#2D3B50"/>
<circle cx="851.5" cy="178.5" r="3.5" fill="#2D3B50"/>
<circle cx="957.5" cy="178.5" r="3.5" fill="#2D3B50"/>
<circle cx="1063.5" cy="178.5" r="3.5" fill="#2D3B50"/>
<circle cx="1169.5" cy="178.5" r="3.5" fill="#2D3B50"/>
<circle cx="3.5" cy="4.5" r="3.5" fill="#2D3B50"/>
<circle cx="109.5" cy="3.5" r="3.5" fill="#2D3B50"/>
<circle cx="215.5" cy="3.5" r="3.5" fill="#2D3B50"/>
<circle cx="321.5" cy="3.5" r="3.5" fill="#2D3B50"/>
<circle cx="427.5" cy="3.5" r="3.5" fill="#2D3B50"/>
<circle cx="533.5" cy="3.5" r="3.5" fill="#2D3B50"/>
<circle cx="639.5" cy="3.5" r="3.5" fill="#2D3B50"/>
<circle cx="745.5" cy="3.5" r="3.5" fill="#2D3B50"/>
<circle cx="851.5" cy="3.5" r="3.5" fill="#2D3B50"/>
<circle cx="957.5" cy="3.5" r="3.5" fill="#2D3B50"/>
<circle cx="1063.5" cy="3.5" r="3.5" fill="#2D3B50"/>
<circle cx="1169.5" cy="3.5" r="3.5" fill="#2D3B50"/>
<circle cx="3.5" cy="2804.5" r="3.5" fill="#2D3B50"/>
<circle cx="109.5" cy="2803.5" r="3.5" fill="#2D3B50"/>
<circle cx="215.5" cy="2803.5" r="3.5" fill="#2D3B50"/>
<circle cx="321.5" cy="2803.5" r="3.5" fill="#2D3B50"/>
<circle cx="427.5" cy="2803.5" r="3.5" fill="#2D3B50"/>
<circle cx="533.5" cy="2803.5" r="3.5" fill="#2D3B50"/>
<circle cx="639.5" cy="2803.5" r="3.5" fill="#2D3B50"/>
<circle cx="745.5" cy="2803.5" r="3.5" fill="#2D3B50"/>
<circle cx="851.5" cy="2803.5" r="3.5" fill="#2D3B50"/>
<circle cx="957.5" cy="2803.5" r="3.5" fill="#2D3B50"/>
<circle cx="1063.5" cy="2803.5" r="3.5" fill="#2D3B50"/>
<circle cx="1169.5" cy="2803.5" r="3.5" fill="#2D3B50"/>
<circle cx="3.5" cy="354.5" r="3.5" fill="#2D3B50"/>
<circle cx="109.5" cy="353.5" r="3.5" fill="#2D3B50"/>
<circle cx="215.5" cy="353.5" r="3.5" fill="#2D3B50"/>
<circle cx="321.5" cy="353.5" r="3.5" fill="#2D3B50"/>
<circle cx="427.5" cy="353.5" r="3.5" fill="#2D3B50"/>
<circle cx="533.5" cy="353.5" r="3.5" fill="#2D3B50"/>
<circle cx="639.5" cy="353.5" r="3.5" fill="#2D3B50"/>
<circle cx="745.5" cy="353.5" r="3.5" fill="#2D3B50"/>
<circle cx="851.5" cy="353.5" r="3.5" fill="#2D3B50"/>
<circle cx="957.5" cy="353.5" r="3.5" fill="#2D3B50"/>
<circle cx="1063.5" cy="353.5" r="3.5" fill="#2D3B50"/>
<circle cx="1169.5" cy="353.5" r="3.5" fill="#2D3B50"/>
<circle cx="3.5" cy="2979.5" r="3.5" fill="#2D3B50"/>
<circle cx="109.5" cy="2978.5" r="3.5" fill="#2D3B50"/>
<circle cx="215.5" cy="2978.5" r="3.5" fill="#2D3B50"/>
<circle cx="321.5" cy="2978.5" r="3.5" fill="#2D3B50"/>
<circle cx="427.5" cy="2978.5" r="3.5" fill="#2D3B50"/>
<circle cx="533.5" cy="2978.5" r="3.5" fill="#2D3B50"/>
<circle cx="639.5" cy="2978.5" r="3.5" fill="#2D3B50"/>
<circle cx="745.5" cy="2978.5" r="3.5" fill="#2D3B50"/>
<circle cx="851.5" cy="2978.5" r="3.5" fill="#2D3B50"/>
<circle cx="957.5" cy="2978.5" r="3.5" fill="#2D3B50"/>
<circle cx="1063.5" cy="2978.5" r="3.5" fill="#2D3B50"/>
<circle cx="1169.5" cy="2978.5" r="3.5" fill="#2D3B50"/>
<circle cx="3.5" cy="529.5" r="3.5" fill="#2D3B50"/>
<circle cx="109.5" cy="528.5" r="3.5" fill="#2D3B50"/>
<circle cx="215.5" cy="528.5" r="3.5" fill="#2D3B50"/>
<circle cx="321.5" cy="528.5" r="3.5" fill="#2D3B50"/>
<circle cx="427.5" cy="528.5" r="3.5" fill="#2D3B50"/>
<circle cx="533.5" cy="528.5" r="3.5" fill="#2D3B50"/>
<circle cx="639.5" cy="528.5" r="3.5" fill="#2D3B50"/>
<circle cx="745.5" cy="528.5" r="3.5" fill="#2D3B50"/>
<circle cx="851.5" cy="528.5" r="3.5" fill="#2D3B50"/>
<circle cx="957.5" cy="528.5" r="3.5" fill="#2D3B50"/>
<circle cx="1063.5" cy="528.5" r="3.5" fill="#2D3B50"/>
<circle cx="1169.5" cy="528.5" r="3.5" fill="#2D3B50"/>
<circle cx="3.5" cy="3154.5" r="3.5" fill="#2D3B50"/>
<circle cx="109.5" cy="3153.5" r="3.5" fill="#2D3B50"/>
<circle cx="215.5" cy="3153.5" r="3.5" fill="#2D3B50"/>
<circle cx="321.5" cy="3153.5" r="3.5" fill="#2D3B50"/>
<circle cx="427.5" cy="3153.5" r="3.5" fill="#2D3B50"/>
<circle cx="533.5" cy="3153.5" r="3.5" fill="#2D3B50"/>
<circle cx="639.5" cy="3153.5" r="3.5" fill="#2D3B50"/>
<circle cx="745.5" cy="3153.5" r="3.5" fill="#2D3B50"/>
<circle cx="851.5" cy="3153.5" r="3.5" fill="#2D3B50"/>
<circle cx="957.5" cy="3153.5" r="3.5" fill="#2D3B50"/>
<circle cx="1063.5" cy="3153.5" r="3.5" fill="#2D3B50"/>
<circle cx="1169.5" cy="3153.5" r="3.5" fill="#2D3B50"/>
<circle cx="3.5" cy="704.5" r="3.5" fill="#2D3B50"/>
<circle cx="109.5" cy="703.5" r="3.5" fill="#2D3B50"/>
<circle cx="215.5" cy="703.5" r="3.5" fill="#2D3B50"/>
<circle cx="321.5" cy="703.5" r="3.5" fill="#2D3B50"/>
<circle cx="427.5" cy="703.5" r="3.5" fill="#2D3B50"/>
<circle cx="533.5" cy="703.5" r="3.5" fill="#2D3B50"/>
<circle cx="639.5" cy="703.5" r="3.5" fill="#2D3B50"/>
<circle cx="745.5" cy="703.5" r="3.5" fill="#2D3B50"/>
<circle cx="851.5" cy="703.5" r="3.5" fill="#2D3B50"/>
<circle cx="957.5" cy="703.5" r="3.5" fill="#2D3B50"/>
<circle cx="1063.5" cy="703.5" r="3.5" fill="#2D3B50"/>
<circle cx="1169.5" cy="703.5" r="3.5" fill="#2D3B50"/>
<circle cx="3.5" cy="3329.5" r="3.5" fill="#2D3B50"/>
<circle cx="109.5" cy="3328.5" r="3.5" fill="#2D3B50"/>
<circle cx="215.5" cy="3328.5" r="3.5" fill="#2D3B50"/>
<circle cx="321.5" cy="3328.5" r="3.5" fill="#2D3B50"/>
<circle cx="427.5" cy="3328.5" r="3.5" fill="#2D3B50"/>
<circle cx="533.5" cy="3328.5" r="3.5" fill="#2D3B50"/>
<circle cx="639.5" cy="3328.5" r="3.5" fill="#2D3B50"/>
<circle cx="745.5" cy="3328.5" r="3.5" fill="#2D3B50"/>
<circle cx="851.5" cy="3328.5" r="3.5" fill="#2D3B50"/>
<circle cx="957.5" cy="3328.5" r="3.5" fill="#2D3B50"/>
<circle cx="1063.5" cy="3328.5" r="3.5" fill="#2D3B50"/>
<circle cx="1169.5" cy="3328.5" r="3.5" fill="#2D3B50"/>
<circle cx="3.5" cy="879.5" r="3.5" fill="#2D3B50"/>
<circle cx="109.5" cy="878.5" r="3.5" fill="#2D3B50"/>
<circle cx="215.5" cy="878.5" r="3.5" fill="#2D3B50"/>
<circle cx="321.5" cy="878.5" r="3.5" fill="#2D3B50"/>
<circle cx="427.5" cy="878.5" r="3.5" fill="#2D3B50"/>
<circle cx="533.5" cy="878.5" r="3.5" fill="#2D3B50"/>
<circle cx="639.5" cy="878.5" r="3.5" fill="#2D3B50"/>
<circle cx="745.5" cy="878.5" r="3.5" fill="#2D3B50"/>
<circle cx="851.5" cy="878.5" r="3.5" fill="#2D3B50"/>
<circle cx="957.5" cy="878.5" r="3.5" fill="#2D3B50"/>
<circle cx="1063.5" cy="878.5" r="3.5" fill="#2D3B50"/>
<circle cx="1169.5" cy="878.5" r="3.5" fill="#2D3B50"/>
<circle cx="3.5" cy="3504.5" r="3.5" fill="#2D3B50"/>
<circle cx="109.5" cy="3503.5" r="3.5" fill="#2D3B50"/>
<circle cx="215.5" cy="3503.5" r="3.5" fill="#2D3B50"/>
<circle cx="321.5" cy="3503.5" r="3.5" fill="#2D3B50"/>
<circle cx="427.5" cy="3503.5" r="3.5" fill="#2D3B50"/>
<circle cx="533.5" cy="3503.5" r="3.5" fill="#2D3B50"/>
<circle cx="639.5" cy="3503.5" r="3.5" fill="#2D3B50"/>
<circle cx="745.5" cy="3503.5" r="3.5" fill="#2D3B50"/>
<circle cx="851.5" cy="3503.5" r="3.5" fill="#2D3B50"/>
<circle cx="957.5" cy="3503.5" r="3.5" fill="#2D3B50"/>
<circle cx="1063.5" cy="3503.5" r="3.5" fill="#2D3B50"/>
<circle cx="1169.5" cy="3503.5" r="3.5" fill="#2D3B50"/>
<circle cx="3.5" cy="1054.5" r="3.5" fill="#2D3B50"/>
<circle cx="109.5" cy="1053.5" r="3.5" fill="#2D3B50"/>
<circle cx="215.5" cy="1053.5" r="3.5" fill="#2D3B50"/>
<circle cx="321.5" cy="1053.5" r="3.5" fill="#2D3B50"/>
<circle cx="427.5" cy="1053.5" r="3.5" fill="#2D3B50"/>
<circle cx="533.5" cy="1053.5" r="3.5" fill="#2D3B50"/>
<circle cx="639.5" cy="1053.5" r="3.5" fill="#2D3B50"/>
<circle cx="745.5" cy="1053.5" r="3.5" fill="#2D3B50"/>
<circle cx="851.5" cy="1053.5" r="3.5" fill="#2D3B50"/>
<circle cx="957.5" cy="1053.5" r="3.5" fill="#2D3B50"/>
<circle cx="1063.5" cy="1053.5" r="3.5" fill="#2D3B50"/>
<circle cx="1169.5" cy="1053.5" r="3.5" fill="#2D3B50"/>
<circle cx="3.5" cy="3679.5" r="3.5" fill="#2D3B50"/>
<circle cx="109.5" cy="3678.5" r="3.5" fill="#2D3B50"/>
<circle cx="215.5" cy="3678.5" r="3.5" fill="#2D3B50"/>
<circle cx="321.5" cy="3678.5" r="3.5" fill="#2D3B50"/>
<circle cx="427.5" cy="3678.5" r="3.5" fill="#2D3B50"/>
<circle cx="533.5" cy="3678.5" r="3.5" fill="#2D3B50"/>
<circle cx="639.5" cy="3678.5" r="3.5" fill="#2D3B50"/>
<circle cx="745.5" cy="3678.5" r="3.5" fill="#2D3B50"/>
<circle cx="851.5" cy="3678.5" r="3.5" fill="#2D3B50"/>
<circle cx="957.5" cy="3678.5" r="3.5" fill="#2D3B50"/>
<circle cx="1063.5" cy="3678.5" r="3.5" fill="#2D3B50"/>
<circle cx="1169.5" cy="3678.5" r="3.5" fill="#2D3B50"/>
<circle cx="3.5" cy="1229.5" r="3.5" fill="#2D3B50"/>
<circle cx="109.5" cy="1228.5" r="3.5" fill="#2D3B50"/>
<circle cx="215.5" cy="1228.5" r="3.5" fill="#2D3B50"/>
<circle cx="321.5" cy="1228.5" r="3.5" fill="#2D3B50"/>
<circle cx="427.5" cy="1228.5" r="3.5" fill="#2D3B50"/>
<circle cx="533.5" cy="1228.5" r="3.5" fill="#2D3B50"/>
<circle cx="639.5" cy="1228.5" r="3.5" fill="#2D3B50"/>
<circle cx="745.5" cy="1228.5" r="3.5" fill="#2D3B50"/>
<circle cx="851.5" cy="1228.5" r="3.5" fill="#2D3B50"/>
<circle cx="957.5" cy="1228.5" r="3.5" fill="#2D3B50"/>
<circle cx="1063.5" cy="1228.5" r="3.5" fill="#2D3B50"/>
<circle cx="1169.5" cy="1228.5" r="3.5" fill="#2D3B50"/>
<circle cx="3.5" cy="3854.5" r="3.5" fill="#2D3B50"/>
<circle cx="109.5" cy="3853.5" r="3.5" fill="#2D3B50"/>
<circle cx="215.5" cy="3853.5" r="3.5" fill="#2D3B50"/>
<circle cx="321.5" cy="3853.5" r="3.5" fill="#2D3B50"/>
<circle cx="427.5" cy="3853.5" r="3.5" fill="#2D3B50"/>
<circle cx="533.5" cy="3853.5" r="3.5" fill="#2D3B50"/>
<circle cx="639.5" cy="3853.5" r="3.5" fill="#2D3B50"/>
<circle cx="745.5" cy="3853.5" r="3.5" fill="#2D3B50"/>
<circle cx="851.5" cy="3853.5" r="3.5" fill="#2D3B50"/>
<circle cx="957.5" cy="3853.5" r="3.5" fill="#2D3B50"/>
<circle cx="1063.5" cy="3853.5" r="3.5" fill="#2D3B50"/>
<circle cx="1169.5" cy="3853.5" r="3.5" fill="#2D3B50"/>
<circle cx="3.5" cy="1404.5" r="3.5" fill="#2D3B50"/>
<circle cx="109.5" cy="1403.5" r="3.5" fill="#2D3B50"/>
<circle cx="215.5" cy="1403.5" r="3.5" fill="#2D3B50"/>
<circle cx="321.5" cy="1403.5" r="3.5" fill="#2D3B50"/>
<circle cx="427.5" cy="1403.5" r="3.5" fill="#2D3B50"/>
<circle cx="533.5" cy="1403.5" r="3.5" fill="#2D3B50"/>
<circle cx="639.5" cy="1403.5" r="3.5" fill="#2D3B50"/>
<circle cx="745.5" cy="1403.5" r="3.5" fill="#2D3B50"/>
<circle cx="851.5" cy="1403.5" r="3.5" fill="#2D3B50"/>
<circle cx="957.5" cy="1403.5" r="3.5" fill="#2D3B50"/>
<circle cx="1063.5" cy="1403.5" r="3.5" fill="#2D3B50"/>
<circle cx="1169.5" cy="1403.5" r="3.5" fill="#2D3B50"/>
<circle cx="3.5" cy="4029.5" r="3.5" fill="#2D3B50"/>
<circle cx="109.5" cy="4028.5" r="3.5" fill="#2D3B50"/>
<circle cx="215.5" cy="4028.5" r="3.5" fill="#2D3B50"/>
<circle cx="321.5" cy="4028.5" r="3.5" fill="#2D3B50"/>
<circle cx="427.5" cy="4028.5" r="3.5" fill="#2D3B50"/>
<circle cx="533.5" cy="4028.5" r="3.5" fill="#2D3B50"/>
<circle cx="639.5" cy="4028.5" r="3.5" fill="#2D3B50"/>
<circle cx="745.5" cy="4028.5" r="3.5" fill="#2D3B50"/>
<circle cx="851.5" cy="4028.5" r="3.5" fill="#2D3B50"/>
<circle cx="957.5" cy="4028.5" r="3.5" fill="#2D3B50"/>
<circle cx="1063.5" cy="4028.5" r="3.5" fill="#2D3B50"/>
<circle cx="1169.5" cy="4028.5" r="3.5" fill="#2D3B50"/>
<circle cx="3.5" cy="1579.5" r="3.5" fill="#2D3B50"/>
<circle cx="109.5" cy="1578.5" r="3.5" fill="#2D3B50"/>
<circle cx="215.5" cy="1578.5" r="3.5" fill="#2D3B50"/>
<circle cx="321.5" cy="1578.5" r="3.5" fill="#2D3B50"/>
<circle cx="427.5" cy="1578.5" r="3.5" fill="#2D3B50"/>
<circle cx="533.5" cy="1578.5" r="3.5" fill="#2D3B50"/>
<circle cx="639.5" cy="1578.5" r="3.5" fill="#2D3B50"/>
<circle cx="745.5" cy="1578.5" r="3.5" fill="#2D3B50"/>
<circle cx="851.5" cy="1578.5" r="3.5" fill="#2D3B50"/>
<circle cx="957.5" cy="1578.5" r="3.5" fill="#2D3B50"/>
<circle cx="1063.5" cy="1578.5" r="3.5" fill="#2D3B50"/>
<circle cx="1169.5" cy="1578.5" r="3.5" fill="#2D3B50"/>
<circle cx="3.5" cy="4204.5" r="3.5" fill="#2D3B50"/>
<circle cx="109.5" cy="4203.5" r="3.5" fill="#2D3B50"/>
<circle cx="215.5" cy="4203.5" r="3.5" fill="#2D3B50"/>
<circle cx="321.5" cy="4203.5" r="3.5" fill="#2D3B50"/>
<circle cx="427.5" cy="4203.5" r="3.5" fill="#2D3B50"/>
<circle cx="533.5" cy="4203.5" r="3.5" fill="#2D3B50"/>
<circle cx="639.5" cy="4203.5" r="3.5" fill="#2D3B50"/>
<circle cx="745.5" cy="4203.5" r="3.5" fill="#2D3B50"/>
<circle cx="851.5" cy="4203.5" r="3.5" fill="#2D3B50"/>
<circle cx="957.5" cy="4203.5" r="3.5" fill="#2D3B50"/>
<circle cx="1063.5" cy="4203.5" r="3.5" fill="#2D3B50"/>
<circle cx="1169.5" cy="4203.5" r="3.5" fill="#2D3B50"/>
<circle cx="3.5" cy="1754.5" r="3.5" fill="#2D3B50"/>
<circle cx="109.5" cy="1753.5" r="3.5" fill="#2D3B50"/>
<circle cx="215.5" cy="1753.5" r="3.5" fill="#2D3B50"/>
<circle cx="321.5" cy="1753.5" r="3.5" fill="#2D3B50"/>
<circle cx="427.5" cy="1753.5" r="3.5" fill="#2D3B50"/>
<circle cx="533.5" cy="1753.5" r="3.5" fill="#2D3B50"/>
<circle cx="639.5" cy="1753.5" r="3.5" fill="#2D3B50"/>
<circle cx="745.5" cy="1753.5" r="3.5" fill="#2D3B50"/>
<circle cx="851.5" cy="1753.5" r="3.5" fill="#2D3B50"/>
<circle cx="957.5" cy="1753.5" r="3.5" fill="#2D3B50"/>
<circle cx="1063.5" cy="1753.5" r="3.5" fill="#2D3B50"/>
<circle cx="1169.5" cy="1753.5" r="3.5" fill="#2D3B50"/>
<circle cx="3.5" cy="4379.5" r="3.5" fill="#2D3B50"/>
<circle cx="109.5" cy="4378.5" r="3.5" fill="#2D3B50"/>
<circle cx="215.5" cy="4378.5" r="3.5" fill="#2D3B50"/>
<circle cx="321.5" cy="4378.5" r="3.5" fill="#2D3B50"/>
<circle cx="427.5" cy="4378.5" r="3.5" fill="#2D3B50"/>
<circle cx="533.5" cy="4378.5" r="3.5" fill="#2D3B50"/>
<circle cx="639.5" cy="4378.5" r="3.5" fill="#2D3B50"/>
<circle cx="745.5" cy="4378.5" r="3.5" fill="#2D3B50"/>
<circle cx="851.5" cy="4378.5" r="3.5" fill="#2D3B50"/>
<circle cx="957.5" cy="4378.5" r="3.5" fill="#2D3B50"/>
<circle cx="1063.5" cy="4378.5" r="3.5" fill="#2D3B50"/>
<circle cx="1169.5" cy="4378.5" r="3.5" fill="#2D3B50"/>
<circle cx="3.5" cy="1929.5" r="3.5" fill="#2D3B50"/>
<circle cx="109.5" cy="1928.5" r="3.5" fill="#2D3B50"/>
<circle cx="215.5" cy="1928.5" r="3.5" fill="#2D3B50"/>
<circle cx="321.5" cy="1928.5" r="3.5" fill="#2D3B50"/>
<circle cx="427.5" cy="1928.5" r="3.5" fill="#2D3B50"/>
<circle cx="533.5" cy="1928.5" r="3.5" fill="#2D3B50"/>
<circle cx="639.5" cy="1928.5" r="3.5" fill="#2D3B50"/>
<circle cx="745.5" cy="1928.5" r="3.5" fill="#2D3B50"/>
<circle cx="851.5" cy="1928.5" r="3.5" fill="#2D3B50"/>
<circle cx="957.5" cy="1928.5" r="3.5" fill="#2D3B50"/>
<circle cx="1063.5" cy="1928.5" r="3.5" fill="#2D3B50"/>
<circle cx="1169.5" cy="1928.5" r="3.5" fill="#2D3B50"/>
<circle cx="3.5" cy="4554.5" r="3.5" fill="#2D3B50"/>
<circle cx="109.5" cy="4553.5" r="3.5" fill="#2D3B50"/>
<circle cx="215.5" cy="4553.5" r="3.5" fill="#2D3B50"/>
<circle cx="321.5" cy="4553.5" r="3.5" fill="#2D3B50"/>
<circle cx="427.5" cy="4553.5" r="3.5" fill="#2D3B50"/>
<circle cx="533.5" cy="4553.5" r="3.5" fill="#2D3B50"/>
<circle cx="639.5" cy="4553.5" r="3.5" fill="#2D3B50"/>
<circle cx="745.5" cy="4553.5" r="3.5" fill="#2D3B50"/>
<circle cx="851.5" cy="4553.5" r="3.5" fill="#2D3B50"/>
<circle cx="957.5" cy="4553.5" r="3.5" fill="#2D3B50"/>
<circle cx="1063.5" cy="4553.5" r="3.5" fill="#2D3B50"/>
<circle cx="1169.5" cy="4553.5" r="3.5" fill="#2D3B50"/>
<circle cx="3.5" cy="2104.5" r="3.5" fill="#2D3B50"/>
<circle cx="109.5" cy="2103.5" r="3.5" fill="#2D3B50"/>
<circle cx="215.5" cy="2103.5" r="3.5" fill="#2D3B50"/>
<circle cx="321.5" cy="2103.5" r="3.5" fill="#2D3B50"/>
<circle cx="427.5" cy="2103.5" r="3.5" fill="#2D3B50"/>
<circle cx="533.5" cy="2103.5" r="3.5" fill="#2D3B50"/>
<circle cx="639.5" cy="2103.5" r="3.5" fill="#2D3B50"/>
<circle cx="745.5" cy="2103.5" r="3.5" fill="#2D3B50"/>
<circle cx="851.5" cy="2103.5" r="3.5" fill="#2D3B50"/>
<circle cx="957.5" cy="2103.5" r="3.5" fill="#2D3B50"/>
<circle cx="1063.5" cy="2103.5" r="3.5" fill="#2D3B50"/>
<circle cx="1169.5" cy="2103.5" r="3.5" fill="#2D3B50"/>
<circle cx="3.5" cy="4729.5" r="3.5" fill="#2D3B50"/>
<circle cx="109.5" cy="4728.5" r="3.5" fill="#2D3B50"/>
<circle cx="215.5" cy="4728.5" r="3.5" fill="#2D3B50"/>
<circle cx="321.5" cy="4728.5" r="3.5" fill="#2D3B50"/>
<circle cx="427.5" cy="4728.5" r="3.5" fill="#2D3B50"/>
<circle cx="533.5" cy="4728.5" r="3.5" fill="#2D3B50"/>
<circle cx="639.5" cy="4728.5" r="3.5" fill="#2D3B50"/>
<circle cx="745.5" cy="4728.5" r="3.5" fill="#2D3B50"/>
<circle cx="851.5" cy="4728.5" r="3.5" fill="#2D3B50"/>
<circle cx="957.5" cy="4728.5" r="3.5" fill="#2D3B50"/>
<circle cx="1063.5" cy="4728.5" r="3.5" fill="#2D3B50"/>
<circle cx="1169.5" cy="4728.5" r="3.5" fill="#2D3B50"/>
<circle cx="3.5" cy="5429.5" r="3.5" fill="#2D3B50"/>
<circle cx="109.5" cy="5428.5" r="3.5" fill="#2D3B50"/>
<circle cx="215.5" cy="5428.5" r="3.5" fill="#2D3B50"/>
<circle cx="321.5" cy="5428.5" r="3.5" fill="#2D3B50"/>
<circle cx="427.5" cy="5428.5" r="3.5" fill="#2D3B50"/>
<circle cx="533.5" cy="5428.5" r="3.5" fill="#2D3B50"/>
<circle cx="639.5" cy="5428.5" r="3.5" fill="#2D3B50"/>
<circle cx="745.5" cy="5428.5" r="3.5" fill="#2D3B50"/>
<circle cx="851.5" cy="5428.5" r="3.5" fill="#2D3B50"/>
<circle cx="957.5" cy="5428.5" r="3.5" fill="#2D3B50"/>
<circle cx="1063.5" cy="5428.5" r="3.5" fill="#2D3B50"/>
<circle cx="1169.5" cy="5428.5" r="3.5" fill="#2D3B50"/>
<circle cx="3.5" cy="2279.5" r="3.5" fill="#2D3B50"/>
<circle cx="109.5" cy="2278.5" r="3.5" fill="#2D3B50"/>
<circle cx="215.5" cy="2278.5" r="3.5" fill="#2D3B50"/>
<circle cx="321.5" cy="2278.5" r="3.5" fill="#2D3B50"/>
<circle cx="427.5" cy="2278.5" r="3.5" fill="#2D3B50"/>
<circle cx="533.5" cy="2278.5" r="3.5" fill="#2D3B50"/>
<circle cx="639.5" cy="2278.5" r="3.5" fill="#2D3B50"/>
<circle cx="745.5" cy="2278.5" r="3.5" fill="#2D3B50"/>
<circle cx="851.5" cy="2278.5" r="3.5" fill="#2D3B50"/>
<circle cx="957.5" cy="2278.5" r="3.5" fill="#2D3B50"/>
<circle cx="1063.5" cy="2278.5" r="3.5" fill="#2D3B50"/>
<circle cx="1169.5" cy="2278.5" r="3.5" fill="#2D3B50"/>
<circle cx="3.5" cy="4904.5" r="3.5" fill="#2D3B50"/>
<circle cx="109.5" cy="4903.5" r="3.5" fill="#2D3B50"/>
<circle cx="215.5" cy="4903.5" r="3.5" fill="#2D3B50"/>
<circle cx="321.5" cy="4903.5" r="3.5" fill="#2D3B50"/>
<circle cx="427.5" cy="4903.5" r="3.5" fill="#2D3B50"/>
<circle cx="533.5" cy="4903.5" r="3.5" fill="#2D3B50"/>
<circle cx="639.5" cy="4903.5" r="3.5" fill="#2D3B50"/>
<circle cx="745.5" cy="4903.5" r="3.5" fill="#2D3B50"/>
<circle cx="851.5" cy="4903.5" r="3.5" fill="#2D3B50"/>
<circle cx="957.5" cy="4903.5" r="3.5" fill="#2D3B50"/>
<circle cx="1063.5" cy="4903.5" r="3.5" fill="#2D3B50"/>
<circle cx="1169.5" cy="4903.5" r="3.5" fill="#2D3B50"/>
<circle cx="3.5" cy="5604.5" r="3.5" fill="#2D3B50"/>
<circle cx="109.5" cy="5603.5" r="3.5" fill="#2D3B50"/>
<circle cx="215.5" cy="5603.5" r="3.5" fill="#2D3B50"/>
<circle cx="321.5" cy="5603.5" r="3.5" fill="#2D3B50"/>
<circle cx="427.5" cy="5603.5" r="3.5" fill="#2D3B50"/>
<circle cx="533.5" cy="5603.5" r="3.5" fill="#2D3B50"/>
<circle cx="639.5" cy="5603.5" r="3.5" fill="#2D3B50"/>
<circle cx="745.5" cy="5603.5" r="3.5" fill="#2D3B50"/>
<circle cx="851.5" cy="5603.5" r="3.5" fill="#2D3B50"/>
<circle cx="957.5" cy="5603.5" r="3.5" fill="#2D3B50"/>
<circle cx="1063.5" cy="5603.5" r="3.5" fill="#2D3B50"/>
<circle cx="1169.5" cy="5603.5" r="3.5" fill="#2D3B50"/>
<circle cx="3.5" cy="2454.5" r="3.5" fill="#2D3B50"/>
<circle cx="109.5" cy="2453.5" r="3.5" fill="#2D3B50"/>
<circle cx="215.5" cy="2453.5" r="3.5" fill="#2D3B50"/>
<circle cx="321.5" cy="2453.5" r="3.5" fill="#2D3B50"/>
<circle cx="427.5" cy="2453.5" r="3.5" fill="#2D3B50"/>
<circle cx="533.5" cy="2453.5" r="3.5" fill="#2D3B50"/>
<circle cx="639.5" cy="2453.5" r="3.5" fill="#2D3B50"/>
<circle cx="745.5" cy="2453.5" r="3.5" fill="#2D3B50"/>
<circle cx="851.5" cy="2453.5" r="3.5" fill="#2D3B50"/>
<circle cx="957.5" cy="2453.5" r="3.5" fill="#2D3B50"/>
<circle cx="1063.5" cy="2453.5" r="3.5" fill="#2D3B50"/>
<circle cx="1169.5" cy="2453.5" r="3.5" fill="#2D3B50"/>
<circle cx="3.5" cy="5079.5" r="3.5" fill="#2D3B50"/>
<circle cx="109.5" cy="5078.5" r="3.5" fill="#2D3B50"/>
<circle cx="215.5" cy="5078.5" r="3.5" fill="#2D3B50"/>
<circle cx="321.5" cy="5078.5" r="3.5" fill="#2D3B50"/>
<circle cx="427.5" cy="5078.5" r="3.5" fill="#2D3B50"/>
<circle cx="533.5" cy="5078.5" r="3.5" fill="#2D3B50"/>
<circle cx="639.5" cy="5078.5" r="3.5" fill="#2D3B50"/>
<circle cx="745.5" cy="5078.5" r="3.5" fill="#2D3B50"/>
<circle cx="851.5" cy="5078.5" r="3.5" fill="#2D3B50"/>
<circle cx="957.5" cy="5078.5" r="3.5" fill="#2D3B50"/>
<circle cx="1063.5" cy="5078.5" r="3.5" fill="#2D3B50"/>
<circle cx="1169.5" cy="5078.5" r="3.5" fill="#2D3B50"/>
<circle cx="3.5" cy="5779.5" r="3.5" fill="#2D3B50"/>
<circle cx="109.5" cy="5778.5" r="3.5" fill="#2D3B50"/>
<circle cx="215.5" cy="5778.5" r="3.5" fill="#2D3B50"/>
<circle cx="321.5" cy="5778.5" r="3.5" fill="#2D3B50"/>
<circle cx="427.5" cy="5778.5" r="3.5" fill="#2D3B50"/>
<circle cx="533.5" cy="5778.5" r="3.5" fill="#2D3B50"/>
<circle cx="639.5" cy="5778.5" r="3.5" fill="#2D3B50"/>
<circle cx="745.5" cy="5778.5" r="3.5" fill="#2D3B50"/>
<circle cx="851.5" cy="5778.5" r="3.5" fill="#2D3B50"/>
<circle cx="957.5" cy="5778.5" r="3.5" fill="#2D3B50"/>
<circle cx="1063.5" cy="5778.5" r="3.5" fill="#2D3B50"/>
<circle cx="1169.5" cy="5778.5" r="3.5" fill="#2D3B50"/>
<circle cx="3.5" cy="2629.5" r="3.5" fill="#2D3B50"/>
<circle cx="109.5" cy="2628.5" r="3.5" fill="#2D3B50"/>
<circle cx="215.5" cy="2628.5" r="3.5" fill="#2D3B50"/>
<circle cx="321.5" cy="2628.5" r="3.5" fill="#2D3B50"/>
<circle cx="427.5" cy="2628.5" r="3.5" fill="#2D3B50"/>
<circle cx="533.5" cy="2628.5" r="3.5" fill="#2D3B50"/>
<circle cx="639.5" cy="2628.5" r="3.5" fill="#2D3B50"/>
<circle cx="745.5" cy="2628.5" r="3.5" fill="#2D3B50"/>
<circle cx="851.5" cy="2628.5" r="3.5" fill="#2D3B50"/>
<circle cx="957.5" cy="2628.5" r="3.5" fill="#2D3B50"/>
<circle cx="1063.5" cy="2628.5" r="3.5" fill="#2D3B50"/>
<circle cx="1169.5" cy="2628.5" r="3.5" fill="#2D3B50"/>
<circle cx="3.5" cy="5254.5" r="3.5" fill="#2D3B50"/>
<circle cx="109.5" cy="5253.5" r="3.5" fill="#2D3B50"/>
<circle cx="215.5" cy="5253.5" r="3.5" fill="#2D3B50"/>
<circle cx="321.5" cy="5253.5" r="3.5" fill="#2D3B50"/>
<circle cx="427.5" cy="5253.5" r="3.5" fill="#2D3B50"/>
<circle cx="533.5" cy="5253.5" r="3.5" fill="#2D3B50"/>
<circle cx="639.5" cy="5253.5" r="3.5" fill="#2D3B50"/>
<circle cx="745.5" cy="5253.5" r="3.5" fill="#2D3B50"/>
<circle cx="851.5" cy="5253.5" r="3.5" fill="#2D3B50"/>
<circle cx="957.5" cy="5253.5" r="3.5" fill="#2D3B50"/>
<circle cx="1063.5" cy="5253.5" r="3.5" fill="#2D3B50"/>
<circle cx="1169.5" cy="5253.5" r="3.5" fill="#2D3B50"/>
</svg>
