<svg width="128" height="128" viewBox="0 0 128 128" fill="none"
  xmlns="http://www.w3.org/2000/svg">
  <path d="M124.936 60.014a8 8 0 0 1-2.95 10.922l-87 50a8 8 0 1 1-7.972-13.872l87-50a8 8 0 0 1 10.922 2.95Z" fill="#8964E8"/>
  <path d="M103.186 47.514a8 8 0 0 1-2.95 10.922l-5.748 3.304a8 8 0 1 1-7.973-13.872l5.749-3.304a8 8 0 0 1 10.922 2.95ZM76.114 63.073a8 8 0 0 1-2.95 10.922L34.986 95.936a8 8 0 0 1-7.972-13.872l38.178-21.941a8 8 0 0 1 10.922 2.95Z" fill="#17B877"/>
  <path d="M81.436 35.014a8 8 0 0 1-2.95 10.922L59.32 56.953a8 8 0 1 1-7.972-13.872l19.167-11.016a8 8 0 0 1 10.922 2.95Zm-40.5 23.276a8 8 0 0 1-2.95 10.922l-3 1.724a8 8 0 0 1-7.972-13.872l3-1.724a8 8 0 0 1 10.922 2.95Z" fill="#FFA23E"/>
  <path d="M59.686 22.514a8 8 0 0 1-2.95 10.923l-21.75 12.5a8 8 0 0 1-7.972-13.873l21.75-12.5a8 8 0 0 1 10.922 2.95Z" fill="#25A6E9"/>
  <path d="M39 14a8 8 0 1 1-16 0 8 8 0 0 1 16 0Z" fill="#8964E8"/>
</svg>