<svg width="20" height="21" viewBox="0 0 20 21" fill="none" xmlns="http://www.w3.org/2000/svg">

	<g clip-path="url(#clip0_59_481)">

		<path d="M19.9999 11.04C19.9999 10.32 19.9369 9.604 19.8099 8.896H10.2129V12.825H15.7449C15.6384 13.4646 15.4015 14.0755 15.0488 14.6197C14.6961 15.1638 14.2353 15.6296 13.6949 15.988V18.536H16.9789C18.8989 16.761 19.9999 14.139 19.9999 11.039V11.04Z" fill="#2E3C51"/>

		<path d="M13.6899 15.9881C12.7739 16.6051 11.5959 16.9651 10.2129 16.9651C7.55294 16.9651 5.28694 15.1731 4.47794 12.7581H1.08594V15.3861C1.93716 17.0747 3.24102 18.4935 4.85194 19.4841C6.46394 20.4755 8.31942 21.0003 10.2119 21.0001C12.9719 21.0001 15.2909 20.0941 16.9769 18.5361L13.6899 15.9881Z" fill="#2E3C51"/>

		<path d="M4.15991 10.807C4.15991 10.144 4.26691 9.485 4.47791 8.857V6.229H1.08591C0.371875 7.64944 0 9.2172 0 10.807C0 12.3968 0.371875 13.9646 1.08591 15.385L4.47991 12.758C4.26848 12.1296 4.16041 11.47 4.15991 10.807Z" fill="#2E3C51"/>

		<path d="M10.2129 4.64999C11.7179 4.64999 13.0669 5.16599 14.1329 6.17799L17.0499 3.26999C15.2799 1.62399 12.9699 0.61499 10.2129 0.61499C8.31994 0.61499 6.46294 1.13899 4.85194 2.13099C3.24099 3.12147 1.93711 4.54029 1.08594 6.22899L4.47994 8.85699C5.28994 6.44199 7.55294 4.64999 10.2129 4.64999Z" fill="#2E3C51"/>
	</g>

	<defs>

		<clipPath id="clip0_59_481">

			<rect width="20" height="21" fill="#2E3C51"/>

		</clipPath>

	</defs>
	
</svg>
