<svg width="192" height="192" viewBox="0 0 192 192" fill="none" xmlns="http://www.w3.org/2000/svg">
<path d="M104 156H40C33.3726 156 28 161.373 28 168C28 174.627 33.3726 180 40 180H104C110.627 180 116 174.627 116 168C116 161.373 110.627 156 104 156Z" fill="#8964E8"/>
<path d="M128 120H116C109.373 120 104 125.373 104 132C104 138.627 109.373 144 116 144H128C134.627 144 140 138.627 140 132C140 125.373 134.627 120 128 120Z" fill="#17B778"/>
<path d="M80 120H68C61.3726 120 56 125.373 56 132C56 138.627 61.3726 144 68 144H80C86.6274 144 92 138.627 92 132C92 125.373 86.6274 120 80 120Z" fill="#17B778"/>
<path d="M124 84H96C89.3726 84 84 89.3726 84 96C84 102.627 89.3726 108 96 108H124C130.627 108 136 102.627 136 96C136 89.3726 130.627 84 124 84Z" fill="#F9A445"/>
<path d="M172 96C172 89.3726 166.627 84 160 84C153.373 84 148 89.3726 148 96C148 102.627 153.373 108 160 108C166.627 108 172 102.627 172 96Z" fill="#F9A445"/>
<path d="M132 48H68C61.3726 48 56 53.3726 56 60C56 66.6274 61.3726 72 68 72H132C138.627 72 144 66.6274 144 60C144 53.3726 138.627 48 132 48Z" fill="#25A6E8"/>
<path d="M104 12H76C69.3726 12 64 17.3726 64 24C64 30.6274 69.3726 36 76 36H104C110.627 36 116 30.6274 116 24C116 17.3726 110.627 12 104 12Z" fill="#8965E5"/>
<path d="M52 24C52 17.3726 46.6274 12 40 12C33.3726 12 28 17.3726 28 24C28 30.6274 33.3726 36 40 36C46.6274 36 52 30.6274 52 24Z" fill="#8965E5"/>
</svg>
