<svg width="658" height="469" viewBox="0 0 658 469" fill="none" xmlns="http://www.w3.org/2000/svg">
<rect x="98.5" y="0.5" width="460" height="324" rx="14.5" stroke="#2D3C51"/>
<rect x="105" y="31" width="446" height="285" rx="5" fill="#333F4F"/>
<rect x="171" y="96" width="153" height="204" rx="5" fill="#FFC26F"/>
<rect x="333" y="96" width="153" height="204" rx="5" fill="#25A6E8"/>
<circle cx="247" cy="198" r="27" fill="white"/>
<rect x="386" y="174" width="47" height="47" rx="5" fill="white"/>
<rect x="171" y="57" width="60" height="7" rx="3.5" fill="#D9D9D9"/>
<rect x="421" y="56" width="65" height="18" rx="9" fill="#A77FFA"/>
<rect x="171" y="70" width="50" height="7" rx="3.5" fill="#848A96"/>
<path d="M496 102C496 99.2386 498.239 97 501 97H549V298H501C498.239 298 496 295.761 496 293V102Z" fill="#161E29"/>
<circle cx="114" cy="16" r="5" fill="#D9D9D9"/>
<circle cx="129" cy="16" r="5" fill="#D9D9D9"/>
<circle cx="144" cy="16" r="5" fill="#D9D9D9"/>
<rect x="515" y="181" width="142" height="287" rx="14" fill="#10161D" stroke="#2D3C51" stroke-width="2"/>
<rect x="520" y="186" width="131" height="276" rx="10" fill="#333F4F"/>
<circle cx="534" cy="199" r="7" fill="black"/>
<rect x="537" y="258" width="98" height="129" rx="6" fill="#FFC26F"/>
<circle cx="586" cy="321" r="18" fill="white"/>
<rect x="554" y="406" width="65" height="17" rx="8.5" fill="#A77FFA"/>
<rect x="556" y="218" width="60" height="7" rx="3.5" fill="white"/>
<rect x="562" y="232" width="49" height="7" rx="3.5" fill="#848A96"/>
<path d="M641 262C641 259.791 642.791 258 645 258H649V386H645C642.791 386 641 384.209 641 382V262Z" fill="#25A6E8"/>
<rect x="1" y="220" width="120.806" height="247" rx="17" fill="#10141D" stroke="#222E40" stroke-width="2"/>
<rect x="6.77557" y="225.776" width="110.102" height="235.449" rx="18" fill="#333F4F"/>
<rect x="24" y="298" width="76" height="102" rx="6" fill="#FFC26F"/>
<circle cx="61.5" cy="348.5" r="15.5" fill="white"/>
<rect x="29" y="421" width="66" height="15" rx="7.5" fill="#A77FFA"/>
<rect x="32" y="259" width="59" height="6" rx="3" fill="white"/>
<rect x="41" y="232" width="39" height="10" rx="5" fill="#10141E"/>
<rect x="36" y="271" width="50" height="6" rx="3" fill="#848A96"/>
<path d="M111 303C111 300.791 112.791 299 115 299H117V397H115C112.791 397 111 395.209 111 393V303Z" fill="#25A6E8"/>
</svg>
