<svg width="128" height="128" viewBox="0 0 128 128" fill="none"
  xmlns="http://www.w3.org/2000/svg">
  <rect x="24" y="104" width="45.3333" height="16" rx="8" fill="#8964E8"/>
  <rect x="77.334" y="104" width="16" height="16" rx="8" fill="#8964E8"/>
  <rect x="48" y="80.0002" width="58.6667" height="16" rx="8" fill="#17B877"/>
  <rect x="106.666" y="56.0002" width="16" height="16" rx="8" fill="#FFA23E"/>
  <rect x="37.334" y="56.0002" width="61.3333" height="16" rx="8" fill="#FFA23E"/>
  <rect x="45.3308" y="32.0012" width="29.3333" height="16" rx="8" fill="#25A6E9"/>
  <rect x="21.334" y="32.0002" width="16" height="16" rx="8" fill="#25A6E9"/>
  <rect x="8" y="8.00024" width="66.6667" height="16" rx="8" fill="#8964E8"/>
  <path d="M100 4C100 17.2548 89.2548 28 76 28C89.2548 28 100 38.7452 100 52C100 38.7452 110.745 28 124 28C110.745 28 100 17.2548 100 4Z" fill="url(#paint0_radial_430_79475)"/>
  <defs>
    <radialGradient id="paint0_radial_430_79475" cx="0" cy="0" r="1" gradientUnits="userSpaceOnUse" gradientTransform="translate(90 38) rotate(-40.9144) scale(39.6989 38.9412)">
      <stop stop-color="#25A6E9"/>
      <stop offset="0.546875" stop-color="#8964E8"/>
      <stop offset="1" stop-color="#FFA23E"/>
    </radialGradient>
  </defs>
</svg>
