<svg width="586" height="399" viewBox="0 0 586 399" fill="none" xmlns="http://www.w3.org/2000/svg">
<path d="M26.5634 372.443C26.4612 372.443 26.359 372.341 26.4612 372.239L27.1769 371.216C27.2791 371.114 27.3814 371.012 27.5859 371.012H40.4684C40.5706 371.012 40.6729 371.114 40.5706 371.216L39.9572 372.136C39.8549 372.239 39.7527 372.341 39.5482 372.341L26.5634 372.443ZM21.1446 375.715C21.0424 375.715 20.9401 375.612 21.0424 375.51L21.758 374.488C21.8603 374.386 21.9625 374.283 22.167 374.283H38.628C38.7303 374.283 38.8325 374.386 38.8325 374.488L38.5258 375.51C38.5258 375.612 38.3213 375.715 38.2191 375.715H21.1446ZM29.8352 379.089C29.7329 379.089 29.6307 378.986 29.7329 378.884L30.2442 377.964C30.3464 377.862 30.4486 377.76 30.6531 377.76H37.8101C37.9123 377.76 38.0146 377.862 38.0146 377.964L37.9123 378.782C37.9123 378.884 37.8101 378.986 37.7078 378.986L29.8352 379.089ZM67.2559 371.727L61.2236 373.261C60.7124 373.363 60.6101 373.465 60.2011 372.852C59.6899 372.239 59.281 371.83 58.463 371.523C56.2137 370.398 53.9644 370.705 51.9195 372.034C49.4657 373.568 48.2388 375.919 48.2388 378.884C48.2388 381.747 50.2836 384.099 53.1464 384.508C55.6002 384.814 57.6451 383.996 59.281 382.156C59.5877 381.747 59.8944 381.338 60.3034 380.827H53.3509C52.6352 380.827 52.4307 380.316 52.6352 379.702C53.1464 378.578 53.9644 376.737 54.4756 375.817C54.5778 375.612 54.8845 375.204 55.3958 375.204H68.4828C68.3805 376.226 68.3805 377.146 68.2783 378.169C67.8693 380.725 66.9491 383.178 65.3133 385.223C62.7572 388.597 59.3832 390.744 55.089 391.358C51.5106 391.869 48.2388 391.153 45.376 389.006C42.7177 386.961 41.1841 384.303 40.7751 381.031C40.2639 377.146 41.4908 373.568 43.8424 370.5C46.3984 367.126 49.7724 364.979 53.9644 364.264C57.3384 363.65 60.6101 364.059 63.4729 366.002C65.4155 367.229 66.7447 368.967 67.6648 371.114C67.7671 371.523 67.6648 371.625 67.2559 371.727Z" fill="#808C9C"/>
<path d="M79.1158 391.665C75.8441 391.562 72.879 390.642 70.323 388.495C68.1759 386.655 66.8467 384.303 66.4378 381.543C65.8243 377.453 66.949 373.874 69.4028 370.705C72.0611 367.229 75.2306 365.49 79.5248 364.673C83.2055 364.059 86.6817 364.366 89.749 366.513C92.6118 368.456 94.3499 371.114 94.8611 374.59C95.4746 379.498 94.0432 383.383 90.7714 386.757C88.4199 389.211 85.4548 390.642 82.1831 391.358C81.0584 391.562 80.036 391.562 79.1158 391.665ZM87.7042 377.146C87.7042 376.635 87.7042 376.328 87.6019 375.919C86.9885 372.341 83.7167 370.296 80.2405 371.114C76.8665 371.829 74.7194 373.977 73.9015 377.351C73.288 380.111 74.6172 382.974 77.1732 384.201C79.1158 385.019 81.1607 384.917 83.001 383.996C85.9661 382.565 87.4997 380.213 87.7042 377.146Z" fill="#808C9C"/>
<path d="M539.531 185.18C537.463 182.178 534.326 180.081 530.762 179.317C527.198 178.553 523.477 179.181 520.361 181.073L509.407 188.036C507.927 188.963 506.659 190.191 505.685 191.64C504.711 193.089 504.053 194.727 503.754 196.447C503.223 199.338 503.685 202.323 505.065 204.917C504.119 206.333 503.486 207.933 503.206 209.612C502.896 211.361 502.936 213.154 503.326 214.887C503.715 216.62 504.446 218.258 505.475 219.705C507.546 222.702 510.68 224.799 514.24 225.569C517.801 226.339 521.521 225.725 524.645 223.852L535.599 216.888C537.075 215.96 538.339 214.731 539.31 213.282C540.28 211.833 540.935 210.196 541.232 208.477C541.759 205.593 541.297 202.616 539.922 200.027C541.343 197.795 542.065 195.189 541.995 192.544C541.926 189.899 541.067 187.335 539.531 185.18ZM519.266 220.312C517.546 220.759 515.73 220.666 514.065 220.047C512.399 219.428 510.965 218.311 509.955 216.849C508.683 215.089 508.214 212.918 508.585 210.766L508.801 209.729L508.996 209.084L509.583 209.475C510.874 210.453 512.322 211.157 513.867 211.627L514.258 211.764L514.219 212.155C514.18 212.702 514.336 213.309 514.649 213.778C515.295 214.698 516.41 215.148 517.486 214.854C517.72 214.776 517.955 214.698 518.151 214.58L529.066 207.617C529.613 207.265 529.965 206.736 530.102 206.11C530.22 205.465 530.063 204.8 529.711 204.272C529.066 203.372 527.951 202.961 526.875 203.235C526.64 203.313 526.386 203.411 526.19 203.528L522.063 206.15C520.179 207.269 517.941 207.633 515.8 207.168C513.659 206.703 511.773 205.445 510.522 203.646C509.899 202.775 509.457 201.787 509.222 200.743C508.987 199.698 508.963 198.616 509.153 197.562C509.339 196.519 509.744 195.526 510.341 194.65C510.937 193.773 511.712 193.033 512.615 192.477L523.51 185.513C524.195 185.083 524.938 184.77 525.74 184.535C529.261 183.616 532.978 185.004 535.051 187.978C535.777 188.997 536.255 190.17 536.449 191.406C536.643 192.642 536.546 193.906 536.166 195.098L535.971 195.743L535.403 195.352C534.099 194.4 532.644 193.673 531.1 193.2L530.709 193.083L530.748 192.692C530.787 192.125 530.631 191.518 530.318 191.049C529.672 190.129 528.557 189.738 527.481 190.012C527.246 190.09 527.012 190.168 526.816 190.286L515.882 197.308C515.334 197.68 514.982 198.188 514.865 198.834C514.747 199.46 514.904 200.144 515.256 200.653C515.882 201.572 517.016 201.964 518.072 201.69C518.327 201.612 518.561 201.533 518.757 201.416L522.924 198.756C523.608 198.306 524.371 197.973 525.153 197.758C528.694 196.839 532.391 198.227 534.464 201.22C535.736 202.981 536.225 205.152 535.873 207.284C535.691 208.325 535.292 209.315 534.702 210.191C534.112 211.067 533.345 211.81 532.45 212.37L521.535 219.314C520.825 219.743 520.062 220.079 519.266 220.312Z" fill="#808C9C"/>
<path d="M294.716 181L289.516 190.007L284.316 181H267L289.516 220L312.033 181H294.716ZM289.516 216.559L269.98 182.72H277L289.516 204.4L302.033 182.72H309.053L289.516 216.559Z" fill="#808C9C"/>
<path d="M290.419 1.31094e-05C290.291 0.000600091 290.163 0.0219515 290.04 0.0642142L265.779 8.61671C265.264 8.79751 264.942 9.3181 265.009 9.86634L268.844 41.7078C268.889 42.0846 269.109 42.4166 269.439 42.5974L289.896 53.8578C290.067 53.9529 290.258 54 290.448 54C290.639 54 290.832 53.9518 291.005 53.8555L311.565 42.4415C311.892 42.2595 312.114 41.9287 312.159 41.5542L315.991 9.71501C316.058 9.16442 315.733 8.63924 315.212 8.4608L290.794 0.0596284C290.673 0.0185397 290.546 -0.000573872 290.419 1.31094e-05ZM290.5 5.86753L305.568 38.7385H300.425L297.201 31.7039H283.799L280.575 38.7385H275.432L290.5 5.86753ZM290.5 17.0202L285.956 26.9989H295.044L290.5 17.0202Z" fill="#808C9C"/>
<path d="M229.522 355C221.201 355 219.478 359.297 219.478 361.785V366.478H229.043V367.435H214.785C211.628 367.435 208 369.923 208 377C208 384.077 211.628 386.565 214.785 386.565H220.435V380.826C220.435 378.722 222.157 377 224.261 377H235.739C237.364 377 238.609 375.756 238.609 374.13V361.785C238.609 358.438 235.451 355 229.522 355ZM225.217 359.783C226.271 359.783 227.13 360.642 227.13 361.696C227.13 362.749 226.271 363.609 225.217 363.609C224.164 363.609 223.304 362.749 223.304 361.696C223.304 360.642 224.164 359.783 225.217 359.783ZM239.565 367.435V374.13C239.565 376.234 237.843 377.957 235.739 377.957H224.261C222.636 377.957 221.391 379.201 221.391 380.826V392.215C221.391 395.563 224.549 399 230.478 399C238.799 399 240.522 394.703 240.522 392.215V387.522H230.957V386.565H245.215C248.372 386.565 252 384.077 252 377C252 369.923 248.372 367.435 245.215 367.435H239.565ZM234.783 390.391C235.836 390.391 236.696 391.251 236.696 392.304C236.696 393.358 235.836 394.217 234.783 394.217C233.729 394.217 232.87 393.358 232.87 392.304C232.87 391.251 233.729 390.391 234.783 390.391Z" fill="#808C9C"/>
<path d="M269.105 365.84C274.46 365.75 276.89 370.79 276.935 376.505C276.935 381.545 274.415 386.27 269.015 386.45C266.81 386.45 264.92 385.775 263.075 384.65V396.305L259.835 395.135L259.88 369.26C259.835 369.26 262.4 365.885 269.06 365.795L269.105 365.84ZM268.295 384.11C272.615 383.84 273.155 379.61 273.155 376.28C273.155 373.04 272.615 368.18 268.52 368C265.73 367.82 263.48 369.125 263.03 369.575V382.4C264.11 383.075 266.27 384.245 268.295 384.11ZM284.54 379.61V379.565C284.54 382.58 286.7 384.155 289.625 384.11C291.38 384.065 293.36 383.075 294.44 382.355V366.29H297.725V384.155C297.725 386.45 297.59 389.915 296.645 391.715C294.98 394.865 290.3 396.125 286.97 396.215L286.43 394.145C288.95 393.785 292.55 393.425 293.9 390.86C294.575 389.6 294.62 387.125 294.62 385.685C294.62 385.19 294.665 385.325 294.62 384.83C293.63 385.28 291.425 386.36 287.555 386.36C284.585 386.36 281.21 384.245 281.21 380.6V366.92L284.54 365.795V379.61ZM302.646 368.405H300.396V366.29H302.646V360.8L305.931 359.63V366.29H309.621V368.405H305.931V381.23C305.931 383.84 307.326 384.47 309.621 384.56V386.27C305.256 386.675 302.646 384.695 302.646 381.32V368.405ZM329.435 386H326.105V373.31C326.105 371.015 324.98 368.405 322.325 368.405C320.255 368.405 318.365 369.62 316.7 370.79V386H313.415V355.67L316.7 354.635V368.45C318.68 367.01 320.93 366.155 323.585 366.155C327.095 366.155 329.435 368.855 329.435 372.275V386ZM332.258 375.785C332.258 370.475 335.633 365.84 341.258 365.795C346.928 365.84 350.258 370.475 350.303 375.785C350.303 381.23 347.333 386.36 341.213 386.405C335.138 386.36 332.258 381.23 332.258 375.785ZM335.813 375.785H335.858C335.858 379.565 337.073 384.335 341.303 384.38C345.893 384.245 346.703 379.565 346.703 375.785C346.703 372.23 345.443 368.27 341.213 368.045C336.713 368.315 335.813 372.23 335.813 375.785ZM369.576 386H366.291V372.59C366.291 369.575 364.311 367.91 361.431 367.955C359.676 368 358.011 368.765 356.976 369.485V386H353.691V369.08C355.356 367.865 356.841 366.92 358.911 366.38C360.531 365.93 362.736 365.48 365.076 366.02C367.461 366.56 369.576 368.27 369.576 370.925V386Z" fill="#808C9C"/>
<path d="M50.5993 1C49.1991 1 47.9004 1.31609 46.75 1.98393C43.1547 4.07711 41.7862 9.17801 42.5113 15.5288C36.6958 18.071 33 21.8142 33 26C33 30.1858 36.6958 33.929 42.5113 36.4712C41.7865 42.8217 43.1547 47.9229 46.75 50.0161C47.8981 50.6839 49.1968 51 50.5993 51C53.5845 51 57.0347 49.4892 60.5 46.8973C63.9656 49.4892 67.42 51 70.4052 51C71.8054 51 73.1041 50.6839 74.2545 50.0161C77.8498 47.9229 79.2183 42.8219 78.4932 36.4712C84.3065 33.9291 88 30.1849 88 26C88 21.8142 84.3042 18.071 78.4887 15.5288C79.2135 9.17826 77.8453 4.07711 74.25 1.98393C73.1019 1.31378 71.8032 1 70.4007 1C67.4155 1 63.9653 2.51079 60.5 5.10273C57.0345 2.51079 53.5834 1 50.5993 1ZM50.5993 5.04405C52.3905 5.04405 54.7593 6.00447 57.3311 7.78372C55.819 9.22267 54.3381 10.8589 52.9133 12.6808C50.6025 13.0149 48.4237 13.502 46.4054 14.1116C46.3945 13.9704 46.3688 13.8223 46.3606 13.6828C46.1154 9.56942 47.0113 6.50316 48.7552 5.48637C49.2708 5.18595 49.8728 5.04405 50.5993 5.04405ZM70.4007 5.04405C71.1249 5.04405 71.7292 5.18595 72.2448 5.48637C73.9888 6.50085 74.8846 9.56942 74.6394 13.6828C74.6311 13.8223 74.6055 13.9704 74.5946 14.1116C72.575 13.5016 70.3947 13.015 68.0822 12.6808C66.6575 10.8592 65.181 9.2225 63.6689 7.78372C66.2405 6.00477 68.6104 5.04405 70.4007 5.04405ZM60.5 10.3519C61.1212 10.922 61.7381 11.5247 62.362 12.1843C61.7437 12.1634 61.1288 12.1347 60.5 12.1347C59.8727 12.1347 59.2593 12.1635 58.6425 12.1843C59.2658 11.5254 59.8794 10.9215 60.5 10.3519ZM60.5 16.1787C62.3991 16.1787 64.199 16.2858 65.9069 16.4721C66.9484 17.8996 67.9749 19.4089 68.9371 21.0894C69.8593 22.7001 70.6749 24.3488 71.3944 26C70.6748 27.6521 69.8599 29.3034 68.9371 30.9151C67.9779 32.5907 66.954 34.0903 65.9159 35.5144C64.1477 35.7094 62.3338 35.8213 60.5 35.8213C58.6009 35.8213 56.801 35.7142 55.0931 35.5279C54.0516 34.1004 53.0251 32.5956 52.0629 30.9151C51.1401 29.3034 50.3254 27.6521 49.6056 26C50.3249 24.3488 51.1407 22.7001 52.0629 21.0894C53.0225 19.4138 54.0458 17.9097 55.0841 16.4856C56.8523 16.2906 58.6662 16.1787 60.5 16.1787ZM71.3765 17.429C72.2857 17.6503 73.1597 17.8893 73.9814 18.1556C73.7953 19.0038 73.5676 19.8683 73.3101 20.7418C73.0152 20.1838 72.7292 19.624 72.4104 19.0673C72.0824 18.4947 71.7183 17.9802 71.3765 17.429ZM49.6191 17.4335C49.2784 17.983 48.9165 18.4965 48.5896 19.0673C48.2709 19.6241 47.9847 20.1837 47.6899 20.7418C47.4318 19.8665 47.2004 19.001 47.0141 18.1511C47.8508 17.8845 48.7227 17.6484 49.6191 17.4335ZM43.2409 19.636C43.7237 21.6918 44.3935 23.823 45.255 25.9955C44.3954 28.1629 43.7284 30.2901 43.2454 32.3414C39.2545 30.3981 37.0104 27.979 37.0104 26C37.0104 23.9687 39.1918 21.6538 42.847 19.8121C42.9718 19.7491 43.1134 19.6975 43.2409 19.636ZM77.7546 19.6586C81.7455 21.6019 83.9896 24.021 83.9896 26C83.9896 28.0313 81.8082 30.3462 78.153 32.1879C78.0282 32.2509 77.8866 32.3025 77.7591 32.364C77.276 30.3069 76.6117 28.1738 75.7494 26C76.6081 23.8345 77.272 21.7082 77.7546 19.6586ZM60.5 21.3782C57.9677 21.3782 55.9167 23.4465 55.9167 26C55.9167 28.5535 57.9677 30.6218 60.5 30.6218C63.0323 30.6218 65.0833 28.5535 65.0833 26C65.0833 23.4465 63.0323 21.3782 60.5 21.3782ZM47.6899 31.2582C47.9849 31.8164 48.2752 32.3758 48.5941 32.9327C48.9217 33.5049 49.2821 34.0202 49.6235 34.571C48.7143 34.3497 47.8403 34.1107 47.0186 33.8444C47.2049 32.9956 47.4322 32.1322 47.6899 31.2582ZM73.3101 31.2627C73.5679 32.1372 73.7997 32.9998 73.9859 33.8489C73.1492 34.1155 72.2773 34.3516 71.3809 34.5665C71.7216 34.017 72.0835 33.5035 72.4104 32.9327C72.7284 32.377 73.0158 31.8196 73.3101 31.2627ZM46.4054 37.8884C48.425 38.4984 50.6053 38.985 52.9178 39.3192C54.343 41.1417 55.8183 42.7815 57.3311 44.2208C54.7595 45.9995 52.3904 46.9605 50.5993 46.9605C49.8751 46.9605 49.2708 46.814 48.7552 46.5136C47.0113 45.4992 46.1154 42.4351 46.3606 38.3217C46.369 38.1807 46.3943 38.0311 46.4054 37.8884ZM74.5946 37.8884C74.6056 38.0311 74.6311 38.1807 74.6394 38.3217C74.8846 42.4351 73.9888 45.4968 72.2448 46.5136C71.7292 46.814 71.1272 46.9605 70.4007 46.9605C68.6096 46.9605 66.2405 45.9998 63.6689 44.2208C65.1818 42.7813 66.6612 41.142 68.0867 39.3192C70.3975 38.9851 72.5763 38.498 74.5946 37.8884ZM58.638 39.8157C59.2563 39.8366 59.8712 39.8653 60.5 39.8653C61.1288 39.8653 61.7437 39.8366 62.362 39.8157C61.7381 40.4753 61.1212 41.078 60.5 41.6481C59.8788 41.078 59.2619 40.4753 58.638 39.8157Z" fill="#808C9C"/>
<path d="M0 202.5L6.3871 208.974L33 182H20.2258L0 202.5ZM33 201.421H20.2258L9.58065 212.211L20.2258 223H33L22.3548 212.211L33 201.421Z" fill="#808C9C"/>
<path d="M43.5117 191.672V213H41.71V191.672H43.5117ZM53.4434 201.486V203.039H42.9111V201.486H53.4434ZM54.9229 191.672V193.225H42.9111V191.672H54.9229ZM59.373 190.5V213H57.6299V190.5H59.373ZM73.5645 209.338V197.15H75.3223V213H73.6377L73.5645 209.338ZM73.8867 206.408L74.7949 206.379C74.7949 207.375 74.6777 208.293 74.4434 209.133C74.209 209.973 73.8428 210.705 73.3447 211.33C72.8467 211.955 72.2021 212.438 71.4111 212.78C70.6201 213.122 69.668 213.293 68.5547 213.293C67.7832 213.293 67.0752 213.186 66.4307 212.971C65.7959 212.746 65.249 212.395 64.79 211.916C64.3311 211.438 63.9746 210.817 63.7207 210.056C63.4766 209.294 63.3545 208.371 63.3545 207.287V197.15H65.0977V207.316C65.0977 208.166 65.1904 208.874 65.376 209.44C65.5713 210.007 65.835 210.461 66.167 210.803C66.5088 211.145 66.8994 211.389 67.3389 211.535C67.7783 211.682 68.252 211.755 68.7598 211.755C70.0488 211.755 71.0645 211.506 71.8066 211.008C72.5586 210.51 73.0908 209.855 73.4033 209.045C73.7256 208.225 73.8867 207.346 73.8867 206.408ZM85.1484 197.15V198.586H77.209V197.15H85.1484ZM80.124 193.078H81.8672V209.147C81.8672 209.88 81.9648 210.432 82.1602 210.803C82.3555 211.174 82.6094 211.423 82.9219 211.55C83.2344 211.677 83.5713 211.74 83.9326 211.74C84.1963 211.74 84.4502 211.726 84.6943 211.696C84.9385 211.657 85.1582 211.618 85.3535 211.579L85.4268 213.059C85.2119 213.127 84.9336 213.181 84.5918 213.22C84.25 213.269 83.9082 213.293 83.5664 213.293C82.8926 213.293 82.2969 213.171 81.7793 212.927C81.2617 212.673 80.8564 212.243 80.5635 211.638C80.2705 211.022 80.124 210.188 80.124 209.133V193.078ZM94.0664 197.15V198.586H86.127V197.15H94.0664ZM89.042 193.078H90.7852V209.147C90.7852 209.88 90.8828 210.432 91.0781 210.803C91.2734 211.174 91.5273 211.423 91.8398 211.55C92.1523 211.677 92.4893 211.74 92.8506 211.74C93.1143 211.74 93.3682 211.726 93.6123 211.696C93.8564 211.657 94.0762 211.618 94.2715 211.579L94.3447 213.059C94.1299 213.127 93.8516 213.181 93.5098 213.22C93.168 213.269 92.8262 213.293 92.4844 213.293C91.8105 213.293 91.2148 213.171 90.6973 212.927C90.1797 212.673 89.7744 212.243 89.4814 211.638C89.1885 211.022 89.042 210.188 89.042 209.133V193.078ZM103.116 213.293C102.081 213.293 101.129 213.103 100.26 212.722C99.4004 212.341 98.6484 211.804 98.0039 211.11C97.3691 210.417 96.876 209.597 96.5244 208.649C96.1826 207.692 96.0117 206.647 96.0117 205.515V204.885C96.0117 203.664 96.1924 202.561 96.5537 201.574C96.915 200.588 97.4131 199.743 98.0479 199.04C98.6826 198.337 99.4053 197.8 100.216 197.429C101.036 197.048 101.896 196.857 102.794 196.857C103.8 196.857 104.693 197.038 105.475 197.399C106.256 197.751 106.91 198.254 107.438 198.908C107.975 199.553 108.38 200.319 108.653 201.208C108.927 202.087 109.063 203.059 109.063 204.123V205.192H97.0664V203.698H107.32V203.493C107.301 202.604 107.12 201.774 106.778 201.003C106.446 200.222 105.948 199.587 105.284 199.099C104.62 198.61 103.79 198.366 102.794 198.366C102.052 198.366 101.368 198.522 100.743 198.835C100.128 199.147 99.5957 199.597 99.1465 200.183C98.707 200.759 98.3652 201.447 98.1211 202.248C97.8867 203.039 97.7695 203.918 97.7695 204.885V205.515C97.7695 206.394 97.8965 207.214 98.1504 207.976C98.4141 208.728 98.7852 209.392 99.2637 209.968C99.752 210.544 100.328 210.993 100.992 211.315C101.656 211.638 102.389 211.799 103.189 211.799C104.127 211.799 104.957 211.628 105.68 211.286C106.402 210.935 107.052 210.383 107.628 209.631L108.727 210.48C108.385 210.988 107.955 211.457 107.438 211.887C106.93 212.316 106.319 212.658 105.606 212.912C104.894 213.166 104.063 213.293 103.116 213.293ZM113.514 199.772V213H111.771V197.15H113.47L113.514 199.772ZM119.124 197.033L119.08 198.645C118.885 198.615 118.694 198.591 118.509 198.571C118.323 198.552 118.123 198.542 117.908 198.542C117.146 198.542 116.478 198.684 115.901 198.967C115.335 199.24 114.856 199.626 114.466 200.124C114.075 200.612 113.777 201.188 113.572 201.853C113.367 202.507 113.25 203.21 113.221 203.962L112.576 204.211C112.576 203.176 112.684 202.214 112.898 201.325C113.113 200.437 113.44 199.66 113.88 198.996C114.329 198.322 114.891 197.8 115.564 197.429C116.248 197.048 117.049 196.857 117.967 196.857C118.191 196.857 118.411 196.877 118.626 196.916C118.851 196.945 119.017 196.984 119.124 197.033Z" fill="#808C9C"/>
<path d="M481 363C472.164 363 465 370.049 465 378.743C465 386.119 470.163 392.292 477.123 394C477.048 393.787 477 393.541 477 393.235V390.544C476.351 390.544 475.263 390.544 474.989 390.544C473.895 390.544 472.921 390.081 472.449 389.221C471.925 388.264 471.835 386.802 470.536 385.907C470.151 385.609 470.444 385.269 470.888 385.315C471.708 385.544 472.388 386.097 473.028 386.918C473.665 387.741 473.965 387.927 475.156 387.927C475.733 387.927 476.597 387.894 477.411 387.769C477.848 386.676 478.604 385.669 479.528 385.195C474.2 384.655 471.657 382.047 471.657 378.507C471.657 376.982 472.317 375.508 473.439 374.265C473.071 373.032 472.608 370.517 473.58 369.559C475.977 369.559 477.427 371.089 477.775 371.502C478.969 371.1 480.281 370.871 481.66 370.871C483.041 370.871 484.359 371.1 485.556 371.505C485.9 371.094 487.351 369.559 489.753 369.559C490.729 370.518 490.261 373.044 489.889 374.274C491.004 375.514 491.66 376.985 491.66 378.507C491.66 382.045 489.121 384.651 483.801 385.193C485.265 385.945 486.333 388.057 486.333 389.648V393.235C486.333 393.372 486.303 393.47 486.287 393.587C492.521 391.437 497 385.612 497 378.743C497 370.049 489.836 363 481 363Z" fill="#808C9C"/>
<path d="M504.258 378.648V377.445C504.258 374.31 505.033 371.908 506.582 370.24C508.132 368.563 510.191 367.725 512.762 367.725C515.086 367.725 516.9 368.312 518.203 369.488C519.507 370.664 520.181 372.136 520.227 373.904V374.219H516.59V373.986C516.59 373.048 516.253 372.25 515.578 371.594C514.913 370.928 513.933 370.596 512.639 370.596C511.235 370.596 510.118 371.138 509.289 372.223C508.46 373.298 508.045 374.889 508.045 376.994V379.127C508.045 381.232 508.482 382.832 509.357 383.926C510.232 385.01 511.445 385.553 512.994 385.553C513.787 385.553 514.466 385.466 515.031 385.293C515.605 385.111 516.152 384.828 516.672 384.445V380.467H512.721V377.732H520.24V385.676C519.648 386.305 518.741 386.911 517.52 387.494C516.307 388.077 514.799 388.369 512.994 388.369C510.287 388.369 508.154 387.535 506.596 385.867C505.037 384.19 504.258 381.784 504.258 378.648ZM522.589 388V374.191H526.185V388H522.589ZM522.275 369.939C522.275 369.393 522.457 368.932 522.821 368.559C523.186 368.176 523.71 367.984 524.394 367.984C525.068 367.984 525.588 368.171 525.952 368.545C526.317 368.919 526.499 369.383 526.499 369.939C526.499 370.486 526.312 370.951 525.939 371.334C525.574 371.717 525.055 371.908 524.38 371.908C523.706 371.908 523.186 371.717 522.821 371.334C522.457 370.951 522.275 370.486 522.275 369.939ZM527.262 376.83V374.191H535.848V376.83H527.262ZM529.477 384.035V375.34L529.504 375.025V370.432H533.018V383.748C533.018 384.486 533.141 384.988 533.387 385.252C533.633 385.507 534.002 385.635 534.495 385.635C534.722 385.635 534.946 385.612 535.164 385.566C535.383 385.521 535.597 385.457 535.807 385.375V387.986C535.588 388.077 535.274 388.164 534.864 388.246C534.463 388.328 534.007 388.369 533.496 388.369C532.257 388.369 531.277 388.027 530.557 387.344C529.837 386.651 529.477 385.548 529.477 384.035ZM537.609 388V368.094H541.3V376.242H549.367V368.094H553.058V388H549.367V379.209H541.3V388H537.609ZM555.831 382.941V374.191H559.413V382.859C559.413 383.844 559.618 384.536 560.028 384.938C560.447 385.329 561.031 385.525 561.778 385.525C562.425 385.525 562.999 385.339 563.501 384.965C564.002 384.591 564.389 384.117 564.663 383.543V374.191H568.231V388H564.841L564.759 386.264H564.704C564.276 386.893 563.697 387.389 562.968 387.754C562.248 388.109 561.423 388.287 560.493 388.287C559.108 388.287 557.982 387.877 557.116 387.057C556.259 386.236 555.831 384.865 555.831 382.941ZM570.908 388V367.369H574.477V375.75C574.914 375.176 575.47 374.725 576.145 374.396C576.828 374.059 577.63 373.891 578.551 373.891C580.31 373.891 581.709 374.538 582.748 375.832C583.796 377.126 584.32 378.79 584.32 380.822V381.26C584.32 383.301 583.792 384.983 582.734 386.305C581.686 387.617 580.287 388.273 578.537 388.273C577.607 388.273 576.773 388.096 576.035 387.74C575.297 387.385 574.759 386.924 574.422 386.359H574.367L574.299 388H570.908ZM574.477 383.516C574.704 384.062 575.074 384.546 575.584 384.965C576.104 385.384 576.76 385.594 577.553 385.594C578.61 385.594 579.394 385.193 579.904 384.391C580.424 383.589 580.684 382.572 580.684 381.342V380.768C580.684 379.537 580.428 378.535 579.918 377.76C579.408 376.985 578.605 376.598 577.512 376.598C576.746 376.598 576.104 376.807 575.584 377.227C575.074 377.646 574.704 378.124 574.477 378.662V383.516Z" fill="#808C9C"/>
<path d="M512.6 25.8557V35.6875C512.6 36.7018 511.777 37.525 510.763 37.525C509.748 37.525 508.925 36.7018 508.925 35.6875V19.7625C508.925 18.9552 509.453 18.2423 510.226 18.0046C510.994 17.7719 511.836 18.0646 512.286 18.7347L512.591 19.188L512.6 19.15L531.262 46.7689C537.742 42.3601 542 34.928 542 26.5C542 12.9687 531.031 2 517.5 2C503.969 2 493 12.9687 493 26.5C493 40.0314 503.969 51 517.5 51C521.275 51 524.838 50.1204 528.031 48.5953L512.6 25.8557ZM522.4 17.3125C522.4 16.2982 523.223 15.475 524.238 15.475C525.252 15.475 526.075 16.2982 526.075 17.3125V32.9803L522.4 27.7079V17.3125Z" fill="#808C9C"/>
</svg>
